<?xml version="1.0" encoding="utf-8"?>
<!-- Generator: Adobe Illustrator 18.0.0, SVG Export Plug-In . SVG Version: 6.00 Build 0)  -->
<!DOCTYPE svg PUBLIC "-//W3C//DTD SVG 1.1//EN" "http://www.w3.org/Graphics/SVG/1.1/DTD/svg11.dtd">
<svg version="1.1" id="圖層_1" xmlns="http://www.w3.org/2000/svg" xmlns:xlink="http://www.w3.org/1999/xlink" x="0px" y="0px"
	 viewBox="0 0 270 261" enable-background="new 0 0 270 261" xml:space="preserve">
<g>
	<g>
		<path fill-rule="evenodd" clip-rule="evenodd" fill="#C8C9CA" d="M198.9,23.2c0-2-0.9-2.6-2.4-3c-3.5-0.9-7-1.6-10.5-2.6
			c-13.8-3.7-28-5.5-42.2-5.7c-3.1,0-6.2,0-9.3,0v167.6c0.8,0,1.5-0.1,2.1-0.5c17.4-9.8,33.3-21.8,46.1-37.9
			c10.5-13.2,16.5-28.1,16.2-45.7C198.6,71.4,198.8,47.3,198.9,23.2z"/>
	</g>
	<g>
		<path fill-rule="evenodd" clip-rule="evenodd" fill="#FFFFFF" d="M212.5,12.5c0-2.1-1-2.9-2.8-3.3c-4-0.9-8.1-1.8-12.1-2.8
			c-15.8-4-32-6-48.2-6.2c-14.9-0.1-29.9,0.3-44.7,1.9C92.4,3.5,80.1,6.8,67.8,9.3c-1.6,0.3-2.5,1.1-2.5,3.1c0,1.5,0,2.9,0,4.4
			c11.1-2.3,22.2-5.2,33.4-6.4c14.3-1.5,28.8-2,43.2-1.8c15.7,0.1,31.3,2.1,46.6,6c3.9,1,7.8,1.8,11.7,2.7c1.7,0.4,2.7,1.1,2.7,3.2
			c-0.1,25.4-0.4,50.8,0,76.2c0.3,18.6-6.3,34.2-17.9,48.2c-13.2,15.9-29.5,27.9-47.4,37.9c1.2,0.3,2.8,0.2,3.7-0.3
			c19.9-10.7,38.1-23.7,52.7-41.2c12-14.4,18.9-30.6,18.6-49.8C212.1,65,212.4,38.8,212.5,12.5z"/>
	</g>
	<g>
		<rect x="36" y="51.4" fill="#231815" width="202.5" height="45.5"/>
		<path fill="#FFFFFF" d="M240,98.4H34.5V49.9H240V98.4z M37.5,95.4H237V52.9H37.5V95.4z"/>
	</g>
	<g>
		<path fill="#FFFFFF" d="M67.7,83.3V72.9h4.6v6.6H79c0.7,0,1.2-0.2,1.6-0.5c0.4-0.4,0.6-0.9,0.6-1.6v-5.2c0-0.7-0.2-1.3-0.6-1.6
			C80.3,70.2,79.7,70,79,70H67.7v-3.8h12.1c0.9,0,1.7,0.1,2.4,0.4c0.7,0.2,1.4,0.6,1.9,1.1c0.5,0.5,0.9,1.1,1.2,1.7
			c0.3,0.7,0.4,1.5,0.4,2.4v5.9c0,0.9-0.1,1.7-0.4,2.4c-0.3,0.7-0.7,1.3-1.2,1.8c-0.5,0.5-1.1,0.8-1.9,1.1c-0.7,0.2-1.5,0.4-2.4,0.4
			H67.7z"/>
		<path fill="#FFFFFF" d="M88.4,66.2h16.3V70H88.4V66.2z M88.4,72.9h16.3v3.8H88.4V72.9z M88.4,79.5h16.3v3.8H88.4V79.5z"/>
		<path fill="#FFFFFF" d="M107.3,66.2h16.3V70h-16.3V66.2z M107.3,72.9h16.3v3.8h-16.3V72.9z"/>
		<path fill="#FFFFFF" d="M126.2,66.2h16.3V70h-16.3V66.2z M126.2,72.9h16.3v3.8h-16.3V72.9z M126.2,79.5h16.3v3.8h-16.3V79.5z"/>
		<path fill="#FFFFFF" d="M163.2,83.3h-4.6l-8.8-10.6v10.6h-4.6V66.2h4.7l8.8,10.6V66.2h4.6V83.3z"/>
		<path fill="#FFFFFF" d="M165.8,83.3v-3.8h11.3c0.6,0,1.1-0.1,1.5-0.3c0.4-0.2,0.6-0.6,0.6-1.1c0-0.4-0.2-0.8-0.5-1
			c-0.3-0.2-0.7-0.4-1.1-0.4h-5.8c-0.8,0-1.6-0.1-2.3-0.3c-0.7-0.2-1.3-0.5-1.8-0.9c-0.5-0.4-1-0.9-1.3-1.5
			c-0.3-0.6-0.5-1.3-0.6-2.1v-0.7c0.1-0.8,0.3-1.5,0.6-2.1c0.3-0.6,0.7-1.1,1.3-1.5c0.5-0.4,1.1-0.7,1.8-0.9
			c0.7-0.2,1.4-0.3,2.3-0.3h12.1V70h-11.3c-0.6,0-1.1,0.1-1.5,0.3c-0.4,0.2-0.6,0.6-0.6,1.1c0,0.4,0.2,0.8,0.5,1
			c0.3,0.2,0.7,0.4,1.1,0.4h5.8c0.8,0,1.6,0.1,2.3,0.3c0.7,0.2,1.3,0.5,1.8,0.9c0.5,0.4,0.9,0.9,1.3,1.5c0.3,0.6,0.5,1.3,0.6,2.1
			v0.7c-0.1,0.8-0.3,1.5-0.6,2.1c-0.3,0.6-0.7,1.1-1.3,1.5c-0.5,0.4-1.1,0.7-1.8,0.9c-0.7,0.2-1.5,0.3-2.3,0.3H165.8z"/>
		<path fill="#FFFFFF" d="M186.5,66.2h16.3V70h-16.3V66.2z M186.5,72.9h16.3v3.8h-16.3V72.9z M186.5,79.5h16.3v3.8h-16.3V79.5z"/>
	</g>
	<g>
		<g>
			<g>
				<path fill="#FFFFFF" d="M36.7,220c0-1.8,0-3.3-0.1-4.5c-0.1-1.2-0.4-2.2-0.8-2.9c-0.5-0.8-1.1-1.3-2-1.7
					c-0.9-0.3-2.1-0.6-3.7-0.7l0-0.8c1.8,0.1,3.6,0.2,5.3,0.2c1.7,0.1,3.5,0.1,5.3,0.1c1.4,0,2.9,0,4.3,0c1.4,0,2.8-0.1,4.2-0.2
					l0,0.8c-1.5,0.1-2.7,0.3-3.5,0.7c-0.9,0.4-1.5,0.9-2,1.6c-0.4,0.7-0.7,1.7-0.8,2.9c-0.1,1.2-0.2,2.7-0.2,4.5l-0.2,21.6
					c0,1.8,0,3.3,0.1,4.5c0.1,1.2,0.4,2.1,0.8,2.9c0.4,0.7,1.1,1.3,2,1.6c0.9,0.3,2.1,0.6,3.7,0.7l0,0.8c-1.6-0.1-3.3-0.1-4.9-0.2
					c-1.7-0.1-3.3-0.1-4.9-0.1c-1.6,0-3.2,0-4.7,0c-1.6,0-3.1,0.1-4.6,0.1v-0.8c1.5-0.1,2.8-0.3,3.6-0.7c0.9-0.4,1.5-0.9,2-1.6
					c0.5-0.7,0.7-1.7,0.9-2.9c0.1-1.2,0.2-2.7,0.2-4.5l0.1-11.6l-24-0.2l-0.1,11.7c0,1.8,0,3.3,0.1,4.5c0.1,1.2,0.4,2.1,0.8,2.9
					c0.4,0.7,1.1,1.3,2,1.6c0.9,0.3,2.2,0.6,3.8,0.7l0,0.8c-1.6-0.1-3.3-0.1-4.9-0.2c-1.6-0.1-3.3-0.1-4.9-0.1c-1.6,0-3.2,0-4.7,0
					c-1.6,0-3.1,0.1-4.7,0.1l0-0.8c1.6-0.1,2.8-0.3,3.6-0.7c0.9-0.4,1.5-0.9,2-1.6c0.5-0.7,0.8-1.7,0.8-2.9c0.1-1.2,0.2-2.7,0.2-4.5
					l0.2-21.6c0-1.8,0-3.3-0.1-4.5c-0.1-1.2-0.4-2.2-0.8-2.9c-0.4-0.8-1.1-1.3-2-1.7c-0.9-0.3-2.1-0.6-3.7-0.7l0-0.8
					c1.8,0.1,3.6,0.2,5.3,0.2c1.7,0.1,3.5,0.1,5.3,0.1c1.4,0,2.8,0,4.3,0c1.4,0,2.8-0.1,4.2-0.2l0,0.8c-1.5,0.1-2.7,0.3-3.5,0.7
					c-0.9,0.4-1.5,0.9-2,1.6c-0.4,0.7-0.7,1.7-0.8,2.9c-0.1,1.2-0.2,2.7-0.2,4.5l-0.1,7.9l24,0.2L36.7,220z"/>
			</g>
			<g>
				<path fill="#FFFFFF" d="M54.4,251.4c1.6-0.1,2.8-0.3,3.6-0.7c0.9-0.4,1.5-0.9,2-1.6c0.5-0.7,0.8-1.7,0.9-2.9
					c0.1-1.2,0.2-2.7,0.2-4.5l0.2-21.6c0-1.8,0-3.3-0.1-4.5c-0.1-1.2-0.4-2.2-0.8-2.9c-0.4-0.8-1.1-1.3-2-1.7
					c-0.9-0.3-2.1-0.6-3.7-0.7v-0.8c1.8,0.1,3.6,0.2,5.3,0.2c1.7,0.1,3.4,0.1,5.3,0.1c1.4,0,2.8,0,4.3,0c1.4,0,2.8-0.1,4.2-0.2
					l0,0.8c-1.5,0.1-2.7,0.3-3.6,0.7c-0.9,0.4-1.5,0.9-2,1.6c-0.4,0.7-0.7,1.7-0.8,2.9c-0.1,1.2-0.2,2.7-0.2,4.5l-0.2,21.6
					c0,1.8,0,3.3,0.1,4.5c0.1,1.2,0.4,2.1,0.8,2.9c0.4,0.7,1.1,1.3,2,1.6c0.9,0.3,2.2,0.6,3.8,0.7l0,0.8c-1.6-0.1-3.3-0.1-4.9-0.2
					c-1.6-0.1-3.3-0.1-4.9-0.1c-1.6,0-3.2,0-4.7,0c-1.5,0-3.1,0.1-4.7,0.1L54.4,251.4z"/>
			</g>
			<g>
				<path fill="#FFFFFF" d="M87.9,251.7c1.5-0.1,2.8-0.3,3.6-0.7c0.9-0.4,1.5-0.9,2-1.6c0.5-0.7,0.8-1.7,0.9-2.9
					c0.1-1.2,0.2-2.7,0.2-4.5l0.2-30c-2.3,0-4.2,0.1-5.7,0.2c-1.5,0.2-2.9,0.6-4,1.3c-1.1,0.7-2.1,1.8-3,3.2c-0.9,1.5-1.7,3.5-2.5,6
					l-0.8-0.2l1-12.7c1.8,0.1,3.6,0.2,5.4,0.2c1.8,0.1,3.6,0.1,5.4,0.1l15.2,0.1c1.7,0,3.4,0,5.1,0c1.7,0,3.4-0.1,5.1-0.2l0.8,12.7
					l-0.8,0.2c-0.8-2.6-1.6-4.5-2.4-6c-0.8-1.5-1.8-2.6-2.9-3.3c-1.1-0.7-2.5-1.2-4-1.4c-1.6-0.2-3.5-0.3-5.8-0.3l-0.2,30
					c0,1.8,0,3.3,0.1,4.5c0.1,1.2,0.4,2.2,0.8,2.9c0.4,0.7,1.1,1.3,2,1.6c0.9,0.3,2.1,0.6,3.8,0.7l0,0.8c-1.6-0.1-3.3-0.1-4.9-0.2
					c-1.6-0.1-3.3-0.1-4.9-0.1c-1.6,0-3.2,0-4.7,0c-1.6,0-3.1,0.1-4.7,0.1L87.9,251.7z"/>
			</g>
			<g>
				<path fill="#FFFFFF" d="M159,225.2c-0.5-2-1.3-3.7-2.2-5.4c-0.9-1.6-2-3.1-3.3-4.3c-1.3-1.2-2.7-2.2-4.4-2.8
					c-1.7-0.7-3.5-1-5.6-1c-2.7,0-4.9,0.5-6.8,1.5c-1.9,1-3.4,2.4-4.6,4.2c-1.2,1.8-2.1,3.8-2.6,6.1c-0.6,2.3-0.8,4.8-0.9,7.4
					c0,2.6,0.3,5.1,1,7.4c0.7,2.4,1.7,4.4,3,6.2c1.4,1.8,3.1,3.2,5.1,4.3c2,1.1,4.4,1.6,7.1,1.6c4,0,7.5-0.9,10.4-3
					c2.9-2,5.5-4.7,7.8-8.2l1.6,1.3c-1.5,2.2-3,4.1-4.4,5.8c-1.5,1.7-3.1,3.1-4.8,4.2c-1.7,1.2-3.6,2-5.7,2.6
					c-2,0.6-4.3,0.9-6.9,0.9c-2.9,0-5.6-0.6-8.2-1.7c-2.6-1.1-4.8-2.7-6.8-4.6c-1.9-2-3.5-4.3-4.6-7.1c-1.1-2.7-1.7-5.8-1.7-9
					c0-3.3,0.6-6.3,1.8-9c1.2-2.7,2.7-5.1,4.7-7c2-2,4.2-3.5,6.8-4.5c2.6-1.1,5.3-1.6,8.2-1.6c1.6,0,3.1,0.1,4.5,0.3
					c1.4,0.2,2.7,0.4,4,0.6c1.3,0.2,2.5,0.4,3.7,0.7c1.2,0.2,2.4,0.4,3.5,0.4c0,0.9,0,2,0.1,3.2c0.1,1.2,0.2,2.5,0.3,3.7
					c0.1,1.3,0.2,2.5,0.4,3.8c0.1,1.2,0.2,2.3,0.4,3.2L159,225.2z"/>
			</g>
			<g>
				<path fill="#FFFFFF" d="M219.2,210.8c1.5,0.1,3,0.2,4.3,0.2c1.4,0.1,2.9,0.1,4.8,0.1c0.9,0,1.9,0,2.8,0c0.9,0,1.8-0.1,2.8-0.2
					c0.5,0.8,1.5,2,2.8,3.5c1.3,1.6,2.7,3.4,4.4,5.4c1.6,2.1,3.4,4.2,5.3,6.5c1.9,2.3,3.7,4.5,5.4,6.7c1.8,2.2,3.4,4.2,4.8,6.1
					c1.5,1.9,2.7,3.4,3.5,4.6h0.1c0-1.3,0-2.6,0.1-3.9c0-1.3,0.1-2.6,0.1-3.9l0.1-7.5c0-2.8-0.1-5.1-0.2-7.2
					c-0.2-2.1-0.6-3.8-1.1-5.1c-0.6-1.4-1.4-2.5-2.4-3.2c-1-0.7-2.4-1.2-4.2-1.3l0-0.8c1.5,0.1,3,0.2,4.6,0.2
					c1.5,0.1,3.1,0.1,4.6,0.1c1.4,0,2.8,0,4.2,0c1.4,0,2.8-0.1,4.2-0.2l0,0.8c-2.7,0.3-4.6,1.1-5.6,2.3c-1,1.2-1.5,3.1-1.6,5.6
					l-0.3,34.3l-2.4,0c-2.3-3.7-4.8-7.3-7.5-10.9c-2.6-3.5-5.2-6.8-7.8-10c-2.6-3.2-5.1-6.1-7.5-8.8c-2.4-2.7-4.6-5.1-6.5-7.3
					c0,1.1-0.1,2.2-0.1,3.3c0,1.1-0.1,2.2-0.1,3.3l-0.1,11.3c0,3.8,0,6.9,0.2,9.1c0.1,2.2,0.5,3.9,1.1,5.1c0.6,1.2,1.4,2,2.6,2.4
					c1.1,0.4,2.7,0.7,4.8,1l0,0.8c-2.2-0.1-4.3-0.2-6.4-0.2c-2.1-0.1-4.2-0.1-6.4-0.1c-1.2,0-2.5,0-3.7,0.1c-1.2,0-2.4,0.1-3.7,0.1
					l0-0.8c1.5-0.2,2.8-0.4,3.8-0.6c1.1-0.2,2-0.5,2.7-1c0.7-0.4,1.3-1.1,1.6-1.9c0.4-0.8,0.6-2,0.7-3.5l1-29.7
					c-1.4-1.1-2.9-2-4.5-2.7c-1.6-0.6-3.3-1.2-5-1.6L219.2,210.8z"/>
			</g>
			<g>
				<g>
					<g>
						<path fill="#FFFFFF" d="M180,210.4c3.2-1.5,7.1,1.5,11.6,2.7c5.7,1.5,11.8,2,13,7.8c1.9,9.4-0.6,14.9-0.6,14.9
							s-6.9,5.6-21.5-1.1c-14.7-6.6-13.5-10.1-13.5-10.1S170.7,214.7,180,210.4z"/>
					</g>
				</g>
				<g>
					<g>
						<path fill="#FFFFFF" d="M167.7,225.2c0,0-1.7,1.6-1.2,3c0.5,1.4,4,7.1,14,10.8c10,3.8,20.2,4,23.2,1.1c1-0.9,0.2-5,0.2-5
							l0.7-7.2c1.7,0.7,2.5,0.7,5.2,1.9c7.2,3.1,17.7,14.1,14.3,23.3c-3.4,9.2-17.5,10.3-31.5,2.3c-23.4-13.4-25.9-25.1-37.1-29.8
							c-2.3-0.9,2.7,1.5,7.6,0.4C167.9,224.9,167.7,225.2,167.7,225.2z"/>
					</g>
				</g>
				<g>
					<g>
						<path fill="#FFFFFF" d="M152.2,224.2c5.7,2.3,15.5,12,23.4,19.8c0,0-22.4-17.2-24.8-18.3C148.7,224.9,149.2,223,152.2,224.2z"
							/>
					</g>
				</g>
			</g>
		</g>
	</g>
</g>
</svg>
