<?xml version="1.0" encoding="utf-8"?>
<!-- Generator: Adobe Illustrator 18.0.0, SVG Export Plug-In . SVG Version: 6.00 Build 0)  -->
<!DOCTYPE svg PUBLIC "-//W3C//DTD SVG 1.1//EN" "http://www.w3.org/Graphics/SVG/1.1/DTD/svg11.dtd">
<svg version="1.1" id="圖層_1" xmlns="http://www.w3.org/2000/svg" xmlns:xlink="http://www.w3.org/1999/xlink" x="0px" y="0px"
	 viewBox="0 0 170.1 226.8" enable-background="new 0 0 170.1 226.8" xml:space="preserve">
<path fill="#A1ECFB" d="M85,131.1c-10,0-20.1,4.1-26.6,11.8c-5.9,7.1-16.5-2.4-10.6-9.4c9.4-10.6,23-16.5,37.2-16.5
	s27.8,5.9,37.2,16.5c5.9,7.1-4.7,16.5-10.6,9.4C105.1,135.2,95.1,131.1,85,131.1z M85,180.7c-7.7,0-14.2-6.5-14.2-14.2
	c0-7.7,6.5-14.2,14.2-14.2s14.2,6.5,14.2,14.2C99.2,174.2,92.7,180.7,85,180.7z M85,95.7c-18.9,0-36,6.5-49.6,20.1
	c-5.9,5.9-17.1-3-10-10C41.3,89.8,62.6,81.5,85,81.5s43.7,8.3,59.6,24.2c7.1,7.1-4.1,15.9-10,10C121.1,102.2,103.9,95.7,85,95.7z
	 M85,60.2c-27.2,0-52.6,10-72,28.3C5.9,95.1-4.1,85,3,78.5C26,57.3,54.3,46.1,85,46.1s59.1,11.2,82.1,32.5c7.1,6.5-3,16.5-10,10
	C137.6,70.3,112.2,60.2,85,60.2z"/>
</svg>
